<svg width="14" height="14" viewBox="0 0 14 14" fill="none" xmlns="http://www.w3.org/2000/svg">
<path d="M13.5386 6.53738L7.35256 0.351338C7.18207 0.185583 6.9361 0.123375 6.70731 0.188147C6.47851 0.252919 6.30166 0.43483 6.24335 0.665356C6.18505 0.895883 6.25416 1.14 6.42465 1.30576L11.4707 6.34297H0.662791C0.296741 6.34297 0 6.63971 0 7.00576C0 7.37181 0.296741 7.66855 0.662791 7.66855H11.4619L6.42465 12.7058C6.29833 12.8288 6.22708 12.9977 6.22708 13.1741C6.22708 13.3505 6.29833 13.5194 6.42465 13.6425C6.54646 13.7703 6.7165 13.8409 6.89302 13.8369C7.06894 13.8378 7.23778 13.7677 7.3614 13.6425L13.5474 7.45645C13.8059 7.19768 13.8059 6.77848 13.5474 6.51971L13.5386 6.53738Z" fill="white"/>
</svg>
