<svg width="219" height="66" viewBox="0 0 219 66" fill="none" xmlns="http://www.w3.org/2000/svg">
<g id="black 3">
<g id="Group">
<g id="Group_2">
<g id="Group_3">
<path id="Vector" d="M196.038 0.000214499H16.9716C16.3188 0.000214499 15.674 0.000214499 15.023 0.00351449C14.478 0.00681448 13.9374 0.0164009 13.3873 0.0244694C12.192 0.0375074 10.9996 0.13498 9.82034 0.31604C8.64275 0.501042 7.50205 0.849823 6.43681 1.35059C5.37288 1.85559 4.40073 2.51178 3.55564 3.29537C2.70611 4.07675 1.99797 4.97993 1.45843 5.97016C0.917404 6.95842 0.542255 8.01744 0.34594 9.11063C0.147758 10.2024 0.0411147 11.3068 0.0269667 12.4139C0.0104485 12.9198 0.00870412 13.4274 0 13.9333V52.0717C0.00870412 52.5841 0.0104485 53.0804 0.0269667 53.5929C0.0411191 54.6999 0.147762 55.8042 0.34594 56.896C0.541713 57.9898 0.916884 59.0494 1.45843 60.0381C1.99772 61.0251 2.70597 61.9246 3.55564 62.7017C4.39753 63.4887 5.3703 64.1454 6.43681 64.6465C7.50204 65.1486 8.64262 65.4995 9.82034 65.6873C10.9998 65.8669 12.1921 65.9644 13.3873 65.979C13.9374 65.9903 14.478 65.9967 15.023 65.9967C15.6739 66 16.3189 66 16.9716 66H196.038C196.678 66 197.328 66 197.968 65.9967C198.51 65.9967 199.066 65.9903 199.608 65.979C200.801 65.9652 201.991 65.8677 203.168 65.6873C204.35 65.4981 205.495 65.1474 206.565 64.6465C207.631 64.1451 208.602 63.4885 209.444 62.7017C210.291 61.9216 211.001 61.0227 211.547 60.0381C212.084 59.0487 212.456 57.9892 212.649 56.896C212.847 55.8041 212.958 54.7 212.979 53.5929C212.986 53.0804 212.986 52.5841 212.986 52.0717C213 51.4723 213 50.8761 213 50.267V15.7348C213 15.1305 213 14.5311 212.986 13.9333C212.986 13.4274 212.986 12.9198 212.979 12.4138C212.958 11.3067 212.847 10.2025 212.649 9.11056C212.455 8.018 212.084 6.95907 211.547 5.97009C210.448 3.98527 208.706 2.36965 206.565 1.35044C205.495 0.850898 204.35 0.50221 203.168 0.315891C201.992 0.134034 200.801 0.0365272 199.608 0.0242384C199.066 0.0161864 198.51 0.00651748 197.968 0.00329999C197.328 0 196.678 0.000214499 196.038 0.000214499Z" fill="black"/>
</g>
</g>
</g>
<path id="path35" d="M168.719 48.2503H171.663V28.5599H168.719V48.2503ZM195.237 35.6534L191.862 44.1896H191.761L188.259 35.6534H185.087L190.341 47.5841L187.345 54.2209H190.415L198.511 35.6539L195.237 35.6534ZM178.54 46.0137C177.578 46.0137 176.232 45.5319 176.232 44.3415C176.232 42.8218 177.907 42.2392 179.353 42.2392C180.646 42.2392 181.257 42.5174 182.043 42.8976C181.814 44.7216 180.241 46.0137 178.54 46.0137ZM178.897 35.2227C176.765 35.2227 174.558 36.1602 173.644 38.2374L176.257 39.3263C176.815 38.2373 177.855 37.883 178.947 37.883C180.47 37.883 182.017 38.7941 182.043 40.4159V40.6183C181.509 40.3143 180.367 39.8585 178.972 39.8585C176.154 39.8585 173.288 41.4032 173.288 44.291C173.288 46.9255 175.597 48.6228 178.185 48.6228C180.163 48.6228 181.257 47.7363 181.94 46.6973H182.043V48.218H184.886V40.6686C184.886 37.1729 182.27 35.2227 178.897 35.2227ZM160.702 38.0502H156.514V31.3014H160.702C162.903 31.3014 164.152 33.12 164.152 34.6757C164.152 36.2016 162.902 38.0502 160.702 38.0502ZM160.626 28.5604H153.572V48.2508H156.514V40.7912H160.626C163.889 40.7912 167.096 38.4337 167.096 34.6765C167.096 30.9199 163.889 28.5604 160.626 28.5604ZM122.159 46.017C120.125 46.017 118.423 44.3165 118.423 41.983C118.423 39.6224 120.125 37.8979 122.159 37.8979C124.167 37.8979 125.743 39.6225 125.743 41.983C125.743 44.3165 124.167 46.017 122.159 46.017ZM125.54 36.7556H125.438C124.777 35.9692 123.506 35.2587 121.905 35.2587C118.549 35.2587 115.474 38.2025 115.474 41.983C115.474 45.7377 118.549 48.6557 121.905 48.6557C123.506 48.6557 124.777 47.945 125.438 47.1336H125.54V48.097C125.54 50.6607 124.167 52.0302 121.956 52.0302C120.152 52.0302 119.033 50.7363 118.575 49.6454L116.009 50.711C116.745 52.4864 118.702 54.6694 121.956 54.6694C125.413 54.6694 128.336 52.639 128.336 47.6909V35.6645H125.54L125.54 36.7556ZM130.37 48.2497H133.317V28.5593H130.37V48.2497ZM137.664 41.7542C137.588 39.1659 139.673 37.8468 141.172 37.8468C142.342 37.8468 143.332 38.4307 143.664 39.2674L137.664 41.7542ZM146.815 39.5209C146.256 38.0247 144.553 35.2587 141.071 35.2587C137.613 35.2587 134.741 37.9736 134.741 41.9572C134.741 45.7126 137.588 48.6558 141.4 48.6558C144.476 48.6558 146.256 46.7788 146.993 45.6873L144.706 44.1647C143.943 45.2813 142.901 46.0171 141.4 46.0171C139.902 46.0171 138.833 45.3318 138.148 43.987L147.12 40.2827L146.815 39.5209ZM75.3306 37.3141V40.1558H82.1425C81.9391 41.7543 81.4053 42.9213 80.5918 43.7334C79.6002 44.7226 78.0497 45.8141 75.3305 45.8141C71.1364 45.8141 67.8577 42.4396 67.8577 38.2529C67.8577 34.0663 71.1364 30.6914 75.3305 30.6914C77.5928 30.6914 79.2446 31.5796 80.4647 32.7215L82.4733 30.7165C80.7698 29.0929 78.508 27.8496 75.3305 27.8496C69.5852 27.8496 64.7559 32.5184 64.7559 38.2529C64.7559 43.9869 69.5852 48.6558 75.3305 48.6558C78.431 48.6558 80.7699 47.6407 82.5997 45.7379C84.4807 43.8601 85.0655 41.2214 85.0655 39.0897C85.0655 38.4308 85.0143 37.8218 84.9126 37.3141H75.3306ZM92.8108 46.017C90.7769 46.017 89.0229 44.3423 89.0229 41.9572C89.0229 39.5468 90.7769 37.898 92.8108 37.898C94.8439 37.898 96.5978 39.5468 96.5978 41.9572C96.5978 44.3423 94.8439 46.017 92.8108 46.017ZM92.8108 35.2587C89.0987 35.2587 86.0744 38.075 86.0744 41.9572C86.0744 45.8141 89.0987 48.6558 92.8108 48.6558C96.5215 48.6558 99.5463 45.8141 99.5463 41.9572C99.5463 38.075 96.5215 35.2587 92.8108 35.2587ZM107.504 46.017C105.472 46.017 103.717 44.3423 103.717 41.9572C103.717 39.5468 105.472 37.898 107.504 37.898C109.538 37.898 111.292 39.5468 111.292 41.9572C111.292 44.3423 109.538 46.017 107.504 46.017ZM107.504 35.2587C103.794 35.2587 100.769 38.075 100.769 41.9572C100.769 45.8141 103.794 48.6558 107.504 48.6558C111.216 48.6558 114.241 45.8141 114.241 41.9572C114.241 38.075 111.216 35.2587 107.504 35.2587Z" fill="white"/>
<path id="path37" d="M32.6859 31.5935L15.8896 49.3903C15.8903 49.394 15.8915 49.397 15.8921 49.4008C16.4073 51.3333 18.1755 52.7563 20.274 52.7563C21.1129 52.7563 21.9005 52.5299 22.576 52.1324L22.6296 52.1011L41.5369 41.2099L32.6859 31.5935Z" fill="#EB3131"/>
<path id="path39" d="M49.6802 28.5634L49.6641 28.5525L41.5012 23.8286L32.3047 31.9977L41.5332 41.2088L49.6529 36.532C51.0765 35.7648 52.0429 34.2667 52.0429 32.5391C52.0429 30.8239 51.0896 29.3332 49.6802 28.5634Z" fill="#F6B60B"/>
<path id="path41" d="M15.8874 15.6121C15.7865 15.9838 15.7334 16.3731 15.7334 16.7774V48.226C15.7334 48.6295 15.7858 49.0202 15.8881 49.3906L33.2642 32.0485L15.8874 15.6121Z" fill="#5778C5"/>
<path id="path43" d="M32.8104 32.502L41.5047 23.8255L22.6187 12.8949C21.9322 12.4844 21.131 12.2476 20.2737 12.2476C18.1751 12.2476 16.4045 13.6731 15.8893 15.6079C15.8887 15.6098 15.8887 15.6111 15.8887 15.6127L32.8104 32.502Z" fill="#3BAD49"/>
<path id="path33" d="M74.7777 16.4061H70.1751V17.543H73.6241C73.5304 18.4708 73.1605 19.1993 72.5369 19.7284C71.9132 20.2575 71.1169 20.5232 70.1752 20.5232C69.1422 20.5232 68.267 20.164 67.5498 19.4504C66.8471 18.722 66.4897 17.8212 66.4897 16.736C66.4897 15.6508 66.8471 14.75 67.5498 14.0217C68.2671 13.3081 69.1422 12.9512 70.1752 12.9512C70.7053 12.9512 71.2106 13.0422 71.674 13.2416C72.1375 13.4408 72.5097 13.719 72.8006 14.0759L73.6758 13.2022C73.2788 12.7518 72.776 12.4073 72.1521 12.1563C71.5285 11.9052 70.8777 11.7848 70.175 11.7848C68.797 11.7848 67.6286 12.2621 66.6745 13.2145C65.7204 14.1693 65.2422 15.3457 65.2422 16.736C65.2422 18.1263 65.7204 19.3052 66.6745 20.2577C67.6286 21.2099 68.797 21.6875 70.175 21.6875C71.6221 21.6875 72.7759 21.2247 73.6634 20.2846C74.4448 19.5022 74.8442 18.444 74.8442 17.12C74.8442 16.8961 74.8172 16.6571 74.7777 16.4061ZM76.5608 11.9962V21.4757H82.1049V20.3116H77.781V17.3045H81.681V16.1675H77.781V13.1627H82.1049V11.9961L76.5608 11.9962ZM89.8792 13.1628V11.9962H83.3537V13.1628H86.0064V21.4756H87.2266V13.1628H89.8792ZM95.787 11.9962H94.5667V21.4757H95.787V11.9962ZM103.841 13.1628V11.9962H97.3161V13.1628H99.9685V21.4756H101.189V13.1628H103.841ZM116.155 13.2292C115.213 12.262 114.06 11.7847 112.682 11.7847C111.301 11.7847 110.148 12.262 109.206 13.2145C108.264 14.1546 107.801 15.3333 107.801 16.7359C107.801 18.1385 108.264 19.3174 109.206 20.2576C110.147 21.2098 111.301 21.6874 112.682 21.6874C114.047 21.6874 115.213 21.2098 116.155 20.2576C117.097 19.3175 117.56 18.1387 117.56 16.7359C117.56 15.3456 117.097 14.1692 116.155 13.2292ZM110.081 14.0216C110.783 13.308 111.646 12.9511 112.682 12.9511C113.715 12.9511 114.577 13.308 115.268 14.0216C115.97 14.7229 116.315 15.6383 116.315 16.7359C116.315 17.836 115.97 18.7489 115.268 19.4503C114.577 20.1639 113.715 20.5232 112.682 20.5232C111.646 20.5232 110.783 20.1639 110.081 19.4503C109.393 18.7342 109.048 17.836 109.048 16.7359C109.048 15.6383 109.393 14.7377 110.081 14.0216ZM120.459 15.572L120.408 13.7434H120.459L125.286 21.4756H126.561V11.9961H125.341V17.5429L125.392 19.3715H125.341L120.726 11.9961H119.239V21.4756H120.459V15.572Z" fill="white" stroke="white" stroke-width="0.329994" stroke-miterlimit="10"/>
</g>
</svg>
