<svg width="199" height="66" viewBox="0 0 199 66" fill="none" xmlns="http://www.w3.org/2000/svg">
<g id="black 1" clip-path="url(#clip0_63_1510)">
<g id="Group">
<g id="Group_2">
<g id="Group_3">
<path id="Vector" d="M183.153 0.0002145H15.8561C15.2462 0.0002145 14.6437 0.0002145 14.0355 0.0035145C13.5264 0.0068145 13.0214 0.016401 12.5073 0.0244695C11.3907 0.0375075 10.2766 0.13498 9.17488 0.316041C8.07468 0.501043 7.00895 0.849825 6.01373 1.35059C5.01973 1.85559 4.11148 2.51179 3.32194 3.29538C2.52825 4.07677 1.86664 4.97994 1.36257 5.97018C0.857105 6.95844 0.506614 8.01746 0.323202 9.11066C0.138046 10.2025 0.0384123 11.3069 0.0251943 12.414C0.00976175 12.9198 0.00813202 13.4274 0 13.9334V52.0719C0.00813202 52.5842 0.00976175 53.0805 0.0251943 53.593C0.0384164 54.7001 0.13805 55.8044 0.323202 56.8962C0.506107 57.99 0.856619 59.0496 1.36257 60.0383C1.86641 61.0253 2.52811 61.9248 3.32194 62.7019C4.10849 63.4889 5.01732 64.1456 6.01373 64.6467C7.00895 65.1488 8.07456 65.4997 9.17488 65.6875C10.2768 65.8671 11.3907 65.9647 12.5073 65.9793C13.0214 65.9905 13.5264 65.9969 14.0355 65.9969C14.6437 66.0002 15.2463 66.0002 15.8561 66.0002H183.153C183.751 66.0002 184.358 66.0002 184.956 65.9969C185.462 65.9969 185.982 65.9905 186.489 65.9793C187.603 65.9654 188.715 65.8679 189.815 65.6875C190.919 65.4984 191.988 65.1476 192.988 64.6467C193.983 64.1453 194.891 63.4887 195.677 62.7019C196.469 61.9218 197.132 61.0229 197.642 60.0383C198.145 59.0489 198.492 57.9894 198.672 56.8962C198.857 55.8043 198.961 54.7002 198.981 53.593C198.987 53.0805 198.987 52.5842 198.987 52.0719C199 51.4725 199 50.8763 199 50.2671V15.7348C199 15.1306 199 14.5312 198.987 13.9334C198.987 13.4274 198.987 12.9198 198.981 12.4139C198.961 11.3067 198.857 10.2026 198.672 9.11059C198.491 8.01803 198.144 6.95909 197.642 5.97011C196.616 3.98529 194.988 2.36966 192.988 1.35044C191.988 0.850901 190.918 0.502211 189.815 0.315892C188.715 0.134034 187.603 0.0365273 186.489 0.0242385C185.982 0.0161865 185.462 0.0065175 184.956 0.0033C184.358 0 183.751 0.0002145 183.153 0.0002145Z" fill="black"/>
</g>
<g id="&#60;Group&#62;">
<g id="&#60;Group&#62;_2">
<g id="&#60;Group&#62;_3">
<path id="&#60;Path&#62;" d="M41.1907 33.4963C41.2086 32.1191 41.5773 30.7688 42.2624 29.571C42.9476 28.3732 43.9271 27.3668 45.1096 26.6454C44.3584 25.5809 43.3673 24.7049 42.2152 24.0868C41.063 23.4688 39.7815 23.1259 38.4724 23.0853C35.6798 22.7944 32.9725 24.7432 31.5495 24.7432C30.0989 24.7432 27.9079 23.1141 25.5486 23.1623C24.0225 23.2112 22.5352 23.6515 21.2317 24.4403C19.9281 25.2291 18.8527 26.3395 18.1102 27.6633C14.894 33.1882 17.293 41.3079 20.3739 45.7738C21.9153 47.9606 23.7168 50.4034 26.074 50.3168C28.3806 50.2218 29.2421 48.8574 32.0265 48.8574C34.785 48.8574 35.5932 50.3168 37.9983 50.2617C40.4734 50.2218 42.0329 48.0651 43.5202 45.8576C44.6277 44.2994 45.48 42.5773 46.0453 40.755C44.6073 40.1515 43.3802 39.1414 42.5169 37.8506C41.6536 36.5598 41.1924 35.0455 41.1907 33.4963Z" fill="white"/>
<path id="&#60;Path&#62;_2" d="M36.648 20.1482C37.9976 18.5408 38.6624 16.4747 38.5014 14.3887C36.4396 14.6035 34.5351 15.5813 33.1673 17.127C32.4985 17.8822 31.9863 18.7607 31.66 19.7124C31.3336 20.664 31.1995 21.6702 31.2653 22.6733C32.2966 22.6839 33.3168 22.4621 34.2492 22.0247C35.1816 21.5873 36.0018 20.9457 36.648 20.1482Z" fill="white"/>
</g>
</g>
<g id="Group_4">
<path id="Vector_2" d="M70.3478 44.7805H62.4762L60.5859 50.3187H57.2518L64.7076 29.829H68.1716L75.6275 50.3187H72.2365L70.3478 44.7805ZM63.2915 42.225H69.531L66.4551 33.237H66.369L63.2915 42.225Z" fill="white"/>
<path id="Vector_3" d="M91.7295 42.8501C91.7295 47.4924 89.2253 50.4749 85.4462 50.4749C84.4889 50.5246 83.5369 50.3058 82.6991 49.8436C81.8613 49.3814 81.1716 48.6944 80.709 47.8613H80.6375V55.2606H77.547V35.38H80.5385V37.8647H80.5953C81.0792 37.0356 81.7805 36.3522 82.6247 35.8871C83.4689 35.4221 84.4243 35.1928 85.3894 35.2237C89.2106 35.2237 91.7295 38.2208 91.7295 42.8501ZM88.553 42.8501C88.553 39.8257 86.9777 37.8373 84.5741 37.8373C82.2128 37.8373 80.6245 39.8676 80.6245 42.8501C80.6245 45.8601 82.2128 47.8759 84.5741 47.8759C86.9777 47.8759 88.553 45.902 88.553 42.8501Z" fill="white"/>
<path id="Vector_4" d="M108.301 42.8504C108.301 47.4926 105.796 50.4752 102.017 50.4752C101.06 50.5248 100.108 50.306 99.2702 49.8438C98.4324 49.3816 97.7428 48.6946 97.2802 47.8616H97.2087V55.2608H94.1182V35.3802H97.1096V37.8649H97.1664C97.6503 37.0358 98.3516 36.3524 99.1958 35.8874C100.04 35.4223 100.995 35.1931 101.961 35.2239C105.782 35.2239 108.301 38.221 108.301 42.8504ZM105.124 42.8504C105.124 39.8259 103.549 37.8375 101.145 37.8375C98.784 37.8375 97.1957 39.8678 97.1957 42.8504C97.1957 45.8603 98.784 47.8761 101.145 47.8761C103.549 47.8761 105.124 45.9022 105.124 42.8504Z" fill="white"/>
<path id="Vector_5" d="M119.253 44.6097C119.482 46.6416 121.472 47.9757 124.19 47.9757C126.795 47.9757 128.669 46.6415 128.669 44.8094C128.669 43.2191 127.539 42.2668 124.863 41.6142L122.186 40.9745C118.394 40.0657 116.634 38.3061 116.634 35.4508C116.634 31.9156 119.739 29.4873 124.148 29.4873C128.512 29.4873 131.503 31.9156 131.604 35.4508H128.484C128.298 33.4061 126.594 32.1718 124.104 32.1718C121.615 32.1718 119.911 33.4206 119.911 35.2381C119.911 36.6867 120.999 37.5391 123.661 38.1916L125.936 38.7459C130.173 39.7401 131.934 41.4289 131.934 44.4259C131.934 48.2592 128.856 50.6601 123.961 50.6601C119.382 50.6601 116.29 48.3156 116.09 44.6096L119.253 44.6097Z" fill="white"/>
<path id="Vector_6" d="M138.604 31.8447V35.38H141.467V37.8083H138.604V46.0437C138.604 47.3231 139.177 47.9193 140.436 47.9193C140.776 47.9135 141.115 47.8898 141.452 47.8484V50.2622C140.886 50.3671 140.311 50.4146 139.736 50.404C136.688 50.404 135.499 49.268 135.499 46.3708V37.8083H133.31V35.38H135.499V31.8447H138.604Z" fill="white"/>
<path id="Vector_7" d="M143.125 42.8501C143.125 38.1499 145.915 35.1963 150.266 35.1963C154.631 35.1963 157.408 38.1498 157.408 42.8501C157.408 47.5632 154.646 50.5039 150.266 50.5039C145.887 50.5039 143.125 47.5632 143.125 42.8501ZM154.259 42.8501C154.259 39.6258 152.77 37.7229 150.266 37.7229C147.762 37.7229 146.274 39.6403 146.274 42.8501C146.274 46.0872 147.762 47.9757 150.266 47.9757C152.77 47.9757 154.259 46.0872 154.259 42.8501Z" fill="white"/>
<path id="Vector_8" d="M159.956 35.38H162.904V37.9226H162.975C163.174 37.1285 163.643 36.4267 164.303 35.9352C164.962 35.4437 165.772 35.1924 166.597 35.2237C166.953 35.2224 167.308 35.2608 167.655 35.3381V38.2062C167.206 38.0699 166.737 38.0073 166.267 38.0209C165.818 38.0029 165.37 38.0814 164.955 38.2512C164.539 38.4209 164.166 38.6779 163.86 39.0044C163.554 39.3309 163.323 39.7193 163.182 40.1428C163.042 40.5663 162.996 41.0149 163.046 41.4579V50.3186H159.956L159.956 35.38Z" fill="white"/>
<path id="Vector_9" d="M181.905 45.931C181.489 48.6428 178.827 50.5039 175.422 50.5039C171.042 50.5039 168.323 47.5922 168.323 42.921C168.323 38.2353 171.056 35.1963 175.292 35.1963C179.457 35.1963 182.077 38.0354 182.077 42.5649V43.6155H171.443V43.8008C171.394 44.3506 171.463 44.9044 171.646 45.4255C171.83 45.9467 172.123 46.4232 172.506 46.8234C172.889 47.2236 173.353 47.5383 173.868 47.7467C174.383 47.9551 174.937 48.0524 175.493 48.0321C176.224 48.1 176.956 47.9322 177.583 47.5536C178.209 47.175 178.696 46.6059 178.97 45.9309L181.905 45.931ZM171.458 41.4724H178.985C179.013 40.9781 178.937 40.4834 178.763 40.0194C178.589 39.5554 178.32 39.1321 177.973 38.7761C177.627 38.4201 177.209 38.139 176.748 37.9506C176.286 37.7621 175.791 37.6703 175.292 37.681C174.789 37.678 174.29 37.7739 173.824 37.9632C173.358 38.1526 172.935 38.4315 172.579 38.784C172.222 39.1365 171.939 39.5556 171.747 40.017C171.555 40.4784 171.456 40.9731 171.458 41.4724Z" fill="white"/>
</g>
</g>
</g>
<g id="&#60;Group&#62;_4">
<g id="Group_5">
<path id="Vector_10" d="M62.9043 14.4061C63.5523 14.3599 64.2024 14.4571 64.808 14.6904C65.4135 14.9238 65.9592 15.2876 66.4059 15.7556C66.8525 16.2235 67.1889 16.784 67.3908 17.3966C67.5927 18.0092 67.6551 18.6587 67.5734 19.2981C67.5734 22.4434 65.8601 24.2514 62.9043 24.2514H59.3202V14.4061H62.9043ZM60.8613 22.859H62.7322C63.1952 22.8865 63.6585 22.8112 64.0885 22.6385C64.5184 22.4659 64.9042 22.2004 65.2176 21.8612C65.5311 21.522 65.7644 21.1177 65.9005 20.6778C66.0366 20.2379 66.0722 19.7734 66.0046 19.3181C66.0673 18.8646 66.0281 18.403 65.8899 17.9663C65.7517 17.5296 65.5178 17.1287 65.2051 16.7922C64.8923 16.4557 64.5084 16.192 64.0809 16.02C63.6534 15.848 63.1928 15.772 62.7322 15.7974H60.8613V22.859Z" fill="white"/>
<path id="Vector_11" d="M69.3144 20.5334C69.2673 20.0451 69.3236 19.5525 69.4797 19.0871C69.6357 18.6216 69.8881 18.1937 70.2206 17.8308C70.5531 17.4678 70.9584 17.1778 71.4105 16.9793C71.8626 16.7809 72.3515 16.6783 72.8458 16.6783C73.3402 16.6783 73.8291 16.7809 74.2812 16.9793C74.7332 17.1778 75.1385 17.4678 75.471 17.8308C75.8035 18.1937 76.0559 18.6216 76.212 19.0871C76.368 19.5525 76.4243 20.0451 76.3772 20.5334C76.4252 21.0221 76.3696 21.5155 76.2139 21.9816C76.0583 22.4478 75.8061 22.8765 75.4735 23.2402C75.1409 23.6039 74.7353 23.8945 74.2828 24.0934C73.8302 24.2922 73.3408 24.395 72.8458 24.395C72.3509 24.395 71.8614 24.2922 71.4089 24.0934C70.9563 23.8945 70.5507 23.6039 70.2181 23.2402C69.8856 22.8765 69.6333 22.4478 69.4777 21.9816C69.3221 21.5155 69.2664 21.0221 69.3144 20.5334ZM74.8571 20.5334C74.8571 18.9229 74.128 17.981 72.8483 17.981C71.5637 17.981 70.841 18.9229 70.841 20.5334C70.841 22.1568 71.5637 23.0914 72.8483 23.0914C74.128 23.0913 74.8571 22.1503 74.8571 20.5334Z" fill="white"/>
<path id="Vector_12" d="M85.7657 24.2512H84.2327L82.685 18.7792H82.5681L81.0269 24.2512H79.5084L77.4443 16.8214H78.9433L80.2847 22.4908H80.3951L81.9347 16.8214H83.3525L84.892 22.4908H85.009L86.3439 16.8214H87.8217L85.7657 24.2512Z" fill="white"/>
<path id="Vector_13" d="M89.5575 16.8213H90.9801V18.0016H91.0905C91.2779 17.5776 91.5939 17.2223 91.9944 16.985C92.395 16.7477 92.8602 16.6403 93.3252 16.6778C93.6895 16.6507 94.0554 16.7052 94.3956 16.8373C94.7359 16.9695 95.0418 17.1759 95.2907 17.4413C95.5396 17.7067 95.7252 18.0243 95.8336 18.3705C95.942 18.7167 95.9706 19.0826 95.9171 19.4413V24.251H94.4393V19.8095C94.4393 18.6155 93.9163 18.0217 92.8234 18.0217C92.576 18.0103 92.329 18.052 92.0994 18.1442C91.8699 18.2363 91.6631 18.3766 91.4932 18.5554C91.3234 18.7342 91.1945 18.9474 91.1155 19.1803C91.0365 19.4131 91.0091 19.6602 91.0353 19.9045V24.2511H89.5575L89.5575 16.8213Z" fill="white"/>
<path id="Vector_14" d="M98.2722 13.921H99.7501V24.2512H98.2722V13.921Z" fill="white"/>
<path id="Vector_15" d="M101.805 20.533C101.758 20.0447 101.814 19.5521 101.97 19.0866C102.126 18.6212 102.378 18.1933 102.711 17.8303C103.044 17.4673 103.449 17.1773 103.901 16.9788C104.353 16.7804 104.842 16.6779 105.336 16.6779C105.831 16.6779 106.32 16.7804 106.772 16.9788C107.224 17.1773 107.629 17.4673 107.962 17.8303C108.294 18.1933 108.547 18.6212 108.703 19.0866C108.859 19.5521 108.915 20.0447 108.868 20.533C108.916 21.0218 108.86 21.5151 108.705 21.9813C108.549 22.4475 108.297 22.8761 107.964 23.2398C107.632 23.6035 107.226 23.8941 106.773 24.093C106.321 24.2918 105.831 24.3946 105.336 24.3946C104.841 24.3946 104.352 24.2918 103.899 24.093C103.447 23.8941 103.041 23.6035 102.709 23.2398C102.376 22.8761 102.124 22.4475 101.968 21.9813C101.812 21.5151 101.757 21.0218 101.805 20.533ZM107.347 20.533C107.347 18.9225 106.618 17.9807 105.338 17.9807C104.054 17.9807 103.331 18.9225 103.331 20.533C103.331 22.1565 104.054 23.091 105.338 23.091C106.618 23.091 107.347 22.15 107.347 20.533Z" fill="white"/>
<path id="Vector_16" d="M110.424 22.1502C110.424 20.8128 111.427 20.0417 113.209 19.9322L115.237 19.8162V19.1748C115.237 18.3901 114.714 17.947 113.704 17.947C112.879 17.947 112.308 18.2475 112.144 18.7728H110.713C110.864 17.4966 112.074 16.6781 113.772 16.6781C115.65 16.6781 116.709 17.6054 116.709 19.1748V24.2513H115.286V23.2072H115.169C114.932 23.5817 114.599 23.8871 114.203 24.092C113.808 24.297 113.365 24.3942 112.92 24.3737C112.606 24.4062 112.288 24.3729 111.987 24.2761C111.687 24.1792 111.41 24.0209 111.175 23.8114C110.939 23.6019 110.751 23.3459 110.622 23.0597C110.492 22.7736 110.425 22.4637 110.424 22.1502ZM115.237 21.5153V20.8941L113.409 21.0101C112.377 21.0786 111.91 21.4267 111.91 22.0817C111.91 22.7504 112.494 23.1395 113.298 23.1395C113.534 23.1632 113.772 23.1396 113.998 23.0701C114.224 23.0007 114.434 22.8868 114.615 22.7352C114.796 22.5837 114.944 22.3976 115.051 22.188C115.158 21.9784 115.221 21.7497 115.237 21.5153Z" fill="white"/>
<path id="Vector_17" d="M118.651 20.5331C118.651 18.1854 119.868 16.6982 121.76 16.6982C122.228 16.6768 122.692 16.788 123.099 17.0188C123.505 17.2496 123.837 17.5905 124.056 18.0017H124.166V13.921H125.644V24.2512H124.228V23.0774H124.111C123.876 23.4857 123.532 23.8224 123.118 24.0509C122.703 24.2794 122.233 24.391 121.76 24.3737C119.855 24.3738 118.651 22.8865 118.651 20.5331ZM120.178 20.5331C120.178 22.109 120.926 23.0573 122.179 23.0573C123.424 23.0573 124.194 22.0953 124.194 20.5396C124.194 18.9911 123.416 18.0154 122.179 18.0154C120.935 18.0154 120.178 18.9701 120.178 20.5331Z" fill="white"/>
<path id="Vector_18" d="M131.759 20.5334C131.712 20.0451 131.768 19.5525 131.924 19.0871C132.08 18.6216 132.332 18.1937 132.665 17.8308C132.997 17.4678 133.403 17.1778 133.855 16.9793C134.307 16.7809 134.796 16.6783 135.29 16.6783C135.785 16.6783 136.273 16.7809 136.725 16.9793C137.178 17.1778 137.583 17.4678 137.915 17.8308C138.248 18.1937 138.5 18.6216 138.656 19.0871C138.812 19.5525 138.869 20.0451 138.822 20.5334C138.87 21.0221 138.814 21.5155 138.658 21.9816C138.503 22.4478 138.25 22.8765 137.918 23.2402C137.585 23.6039 137.18 23.8945 136.727 24.0934C136.275 24.2922 135.785 24.395 135.29 24.395C134.795 24.395 134.306 24.2922 133.853 24.0934C133.401 23.8945 132.995 23.6039 132.662 23.2402C132.33 22.8765 132.078 22.4478 131.922 21.9816C131.766 21.5155 131.711 21.0221 131.759 20.5334ZM137.301 20.5334C137.301 18.9229 136.572 17.981 135.293 17.981C134.008 17.981 133.285 18.9229 133.285 20.5334C133.285 22.1568 134.008 23.0914 135.293 23.0914C136.572 23.0913 137.301 22.1503 137.301 20.5334Z" fill="white"/>
<path id="Vector_19" d="M140.805 16.8213H142.227V18.0016H142.338C142.525 17.5776 142.841 17.2223 143.241 16.985C143.642 16.7477 144.107 16.6403 144.572 16.6778C144.937 16.6507 145.302 16.7052 145.643 16.8373C145.983 16.9695 146.289 17.1759 146.538 17.4413C146.787 17.7067 146.972 18.0243 147.081 18.3705C147.189 18.7167 147.218 19.0826 147.164 19.4413V24.251H145.686V19.8095C145.686 18.6155 145.163 18.0217 144.07 18.0217C143.823 18.0103 143.576 18.052 143.347 18.1442C143.117 18.2363 142.91 18.3766 142.74 18.5554C142.57 18.7342 142.442 18.9474 142.363 19.1803C142.284 19.4131 142.256 19.6602 142.282 19.9045V24.2511H140.805V16.8213Z" fill="white"/>
<path id="Vector_20" d="M155.515 14.9716V16.8552H157.137V18.0903H155.515V21.9107C155.515 22.689 155.838 23.0298 156.573 23.0298C156.762 23.0292 156.95 23.0179 157.137 22.996V24.2173C156.872 24.2645 156.603 24.2895 156.333 24.2923C154.69 24.2923 154.035 23.7186 154.035 22.2862V18.0902H152.846V16.8551H154.035V14.9716H155.515Z" fill="white"/>
<path id="Vector_21" d="M159.155 13.921H160.62V18.0154H160.737C160.933 17.5875 161.258 17.2302 161.667 16.992C162.075 16.7538 162.548 16.6464 163.02 16.6845C163.383 16.6649 163.745 16.7249 164.081 16.8603C164.418 16.9957 164.72 17.203 164.966 17.4676C165.213 17.7321 165.397 18.0474 165.506 18.3908C165.616 18.7342 165.647 19.0974 165.599 19.4543V24.2513H164.12V19.8161C164.12 18.6293 163.563 18.0283 162.519 18.0283C162.265 18.0076 162.009 18.0423 161.77 18.1298C161.531 18.2173 161.314 18.3557 161.134 18.5351C160.955 18.7145 160.817 18.9307 160.73 19.1685C160.644 19.4063 160.61 19.66 160.633 19.9119V24.2512H159.155L159.155 13.921Z" fill="white"/>
<path id="Vector_22" d="M174.217 22.2451C174.016 22.9242 173.581 23.5115 172.988 23.9045C172.395 24.2974 171.681 24.4709 170.972 24.3946C170.479 24.4075 169.989 24.3138 169.536 24.1199C169.082 23.9259 168.677 23.6365 168.348 23.2716C168.019 22.9067 167.774 22.4752 167.63 22.0069C167.485 21.5386 167.446 21.0447 167.513 20.5597C167.448 20.0731 167.488 19.5782 167.632 19.1085C167.776 18.6388 168.019 18.2052 168.347 17.8372C168.674 17.4691 169.077 17.1751 169.529 16.9751C169.981 16.7751 170.471 16.6738 170.966 16.678C173.049 16.678 174.306 18.0904 174.306 20.4235V20.9351H169.019V21.0173C168.996 21.29 169.03 21.5644 169.12 21.823C169.21 22.0817 169.354 22.3188 169.541 22.5192C169.729 22.7196 169.957 22.8789 170.21 22.9868C170.464 23.0947 170.737 23.1488 171.013 23.1458C171.366 23.1879 171.725 23.1247 172.042 22.9644C172.359 22.804 172.621 22.5536 172.794 22.2451L174.217 22.2451ZM169.019 19.8507H172.801C172.82 19.6013 172.785 19.3509 172.701 19.1154C172.616 18.8799 172.482 18.6646 172.309 18.4833C172.135 18.3021 171.925 18.1588 171.693 18.0628C171.46 17.9669 171.21 17.9202 170.958 17.926C170.702 17.9228 170.448 17.9704 170.212 18.066C169.975 18.1616 169.76 18.3033 169.579 18.4826C169.398 18.662 169.256 18.8755 169.159 19.1104C169.063 19.3454 169.015 19.5971 169.019 19.8507Z" fill="white"/>
</g>
</g>
</g>
</g>
<defs>
<clipPath id="clip0_63_1510">
<rect width="199" height="66" fill="white"/>
</clipPath>
</defs>
</svg>
