<svg width="48" height="49" viewBox="0 0 48 49" fill="none" xmlns="http://www.w3.org/2000/svg">
<circle cx="24" cy="24.48" r="24" fill="black"/>
<path d="M31.7602 24.9957C31.7683 24.9351 31.7663 24.8742 31.7594 24.8136C31.7576 24.7988 31.755 24.7844 31.7524 24.7697C31.7426 24.7148 31.7276 24.6611 31.7051 24.6095C31.7028 24.6046 31.7016 24.5991 31.6993 24.5945C31.6736 24.539 31.639 24.4874 31.5986 24.4389C31.5942 24.434 31.5925 24.4276 31.5882 24.4227L24.8521 16.7265C24.59 16.4266 24.1345 16.396 23.834 16.6587C23.534 16.9214 23.5034 17.3772 23.7664 17.6771L29.4543 24.1764L16.7217 24.1764C16.323 24.1764 16 24.4995 16 24.8981C16 25.2968 16.323 25.6198 16.7217 25.6198L29.4416 25.6198L23.769 32.0233C23.5046 32.3218 23.5323 32.7779 23.8305 33.0421C23.9682 33.1639 24.1388 33.2237 24.3088 33.2237C24.508 33.2237 24.7066 33.1417 24.8492 32.9806L31.5853 25.3768C31.5864 25.3756 31.587 25.3742 31.5879 25.373C31.5913 25.3693 31.5937 25.3649 31.5965 25.3609C31.6349 25.3156 31.665 25.2665 31.6901 25.2151C31.6935 25.2085 31.699 25.2033 31.7022 25.1964C31.7057 25.1894 31.7057 25.1813 31.7086 25.1741C31.7319 25.1175 31.7504 25.0598 31.7588 25.0003C31.7594 24.9989 31.7599 24.9975 31.7602 24.9957Z" fill="white"/>
</svg>
