<svg width="20" height="20" viewBox="0 0 20 20" fill="none" xmlns="http://www.w3.org/2000/svg">
<path fill-rule="evenodd" clip-rule="evenodd" d="M9.96029 3.14974C6.02526 3.14974 2.83529 6.33971 2.83529 10.2747C2.83529 14.2098 6.02526 17.3997 9.96029 17.3997C13.8953 17.3997 17.0853 14.2098 17.0853 10.2747C17.0853 6.33971 13.8953 3.14974 9.96029 3.14974ZM1.25195 10.2747C1.25195 5.46526 5.15081 1.56641 9.96029 1.56641C14.7698 1.56641 18.6686 5.46526 18.6686 10.2747C18.6686 15.0842 14.7698 18.9831 9.96029 18.9831C5.15081 18.9831 1.25195 15.0842 1.25195 10.2747ZM9.96027 4.73306C10.3975 4.73306 10.7519 5.0875 10.7519 5.52473V9.78545L13.481 11.15C13.872 11.3455 14.0306 11.821 13.835 12.2121C13.6395 12.6032 13.164 12.7617 12.7729 12.5661L9.60623 10.9828C9.33803 10.8487 9.16861 10.5746 9.16861 10.2747V5.52473C9.16861 5.0875 9.52305 4.73306 9.96027 4.73306Z" fill="black"/>
</svg>
