<svg width="16" height="17" viewBox="0 0 16 17" fill="none" xmlns="http://www.w3.org/2000/svg">
<g clip-path="url(#clip0_548_2359)">
<path fill-rule="evenodd" clip-rule="evenodd" d="M2 3.54167C1.63181 3.54167 1.33333 3.8588 1.33333 4.25V6.375H14.6667V4.25C14.6667 3.8588 14.3682 3.54167 14 3.54167H2ZM16 4.25C16 3.0764 15.1046 2.125 14 2.125H2C0.895431 2.125 0 3.07639 0 4.25V12.75C0 13.9236 0.89543 14.875 2 14.875H14C15.1046 14.875 16 13.9236 16 12.75V4.25ZM14.6667 7.79167H1.33333V12.75C1.33333 13.1412 1.63181 13.4583 2 13.4583H14C14.3682 13.4583 14.6667 13.1412 14.6667 12.75V7.79167Z" fill="white"/>
</g>
<defs>
<clipPath id="clip0_548_2359">
<rect width="16" height="17" fill="white"/>
</clipPath>
</defs>
</svg>
