<svg width="17" height="17" viewBox="0 0 17 17" fill="none" xmlns="http://www.w3.org/2000/svg">
<g clip-path="url(#clip0_548_2356)">
<path fill-rule="evenodd" clip-rule="evenodd" d="M2.16456 7.79232H4.99447C5.15328 5.83506 5.80835 3.95628 6.88969 2.33095C4.37022 2.98696 2.45716 5.14544 2.16456 7.79232ZM8.50065 2.5158C7.31796 4.03952 6.59438 5.87049 6.41644 7.79232H10.5849C10.4069 5.87049 9.68334 4.03952 8.50065 2.5158ZM10.5849 9.20898C10.4069 11.1308 9.68334 12.9618 8.50065 14.4855C7.31796 12.9618 6.59438 11.1308 6.41644 9.20898H10.5849ZM4.99447 9.20898H2.16456C2.45716 11.8559 4.37022 14.0143 6.88969 14.6704C5.80835 13.045 5.15328 11.1662 4.99447 9.20898ZM10.1116 14.6704C11.193 13.045 11.848 11.1662 12.0068 9.20898H14.8367C14.5441 11.8559 12.6311 14.0143 10.1116 14.6704ZM14.8367 7.79232H12.0068C11.848 5.83506 11.193 3.95628 10.1116 2.33095C12.6311 2.98696 14.5441 5.14544 14.8367 7.79232ZM0.708984 8.50065C0.708984 4.19743 4.19743 0.708984 8.50065 0.708984C12.8039 0.708984 16.2923 4.19743 16.2923 8.50065C16.2923 12.8039 12.8039 16.2923 8.50065 16.2923C4.19743 16.2923 0.708984 12.8039 0.708984 8.50065Z" fill="white"/>
</g>
<defs>
<clipPath id="clip0_548_2356">
<rect width="17" height="17" fill="white"/>
</clipPath>
</defs>
</svg>
