<svg width="54" height="54" viewBox="0 0 54 54" fill="none" xmlns="http://www.w3.org/2000/svg">
<g id="Group 236">
<circle id="Ellipse 48" cx="27" cy="27" r="27" fill="black"/>
<path id="Vector" d="M34.7078 27.2879C34.7164 27.2237 34.7142 27.1592 34.7069 27.095C34.7051 27.0794 34.7023 27.0642 34.6996 27.0486C34.6892 26.9905 34.6733 26.9336 34.6494 26.8789C34.647 26.8737 34.6458 26.8679 34.6433 26.863C34.6161 26.8043 34.5794 26.7496 34.5366 26.6983C34.5321 26.6931 34.5302 26.6864 34.5256 26.6812L27.3934 18.5323C27.1158 18.2147 26.6335 18.1823 26.3153 18.4604C25.9977 18.7386 25.9653 19.2212 26.2438 19.5388L32.2662 26.4204H18.7847C18.3625 26.4204 18.0205 26.7625 18.0205 27.1846C18.0205 27.6067 18.3625 27.9487 18.7847 27.9487H32.2527L26.2465 34.7289C25.9665 35.045 25.9959 35.5279 26.3116 35.8076C26.4574 35.9366 26.6381 35.9998 26.8181 35.9998C27.029 35.9998 27.2393 35.913 27.3903 35.7425L34.5226 27.6914C34.5238 27.6902 34.5244 27.6886 34.5253 27.6874C34.529 27.6834 34.5314 27.6788 34.5345 27.6746C34.5752 27.6266 34.6069 27.5746 34.6335 27.5202C34.6372 27.5132 34.643 27.5077 34.6464 27.5003C34.65 27.493 34.65 27.4844 34.6531 27.4768C34.6779 27.4169 34.6974 27.3558 34.7063 27.2928C34.7069 27.2913 34.7075 27.2897 34.7078 27.2879Z" fill="white"/>
</g>
</svg>
