<svg width="29" height="29" viewBox="0 0 29 29" fill="none" xmlns="http://www.w3.org/2000/svg">
<g id="Group 236">
<circle id="Ellipse 48" cx="14.5" cy="14.5" r="14.5" fill="black"/>
<path id="Vector" d="M18.6394 14.6545C18.644 14.6201 18.6429 14.5854 18.6389 14.551C18.638 14.5426 18.6365 14.5344 18.635 14.526C18.6294 14.4948 18.6209 14.4643 18.6081 14.4349C18.6068 14.4321 18.6061 14.429 18.6048 14.4264C18.5902 14.3949 18.5705 14.3655 18.5475 14.3379C18.545 14.3351 18.5441 14.3315 18.5416 14.3287L14.7113 9.95243C14.5623 9.78188 14.3032 9.76448 14.1323 9.91386C13.9618 10.0632 13.9444 10.3224 14.0939 10.493L17.3282 14.1887H10.0881C9.86142 14.1887 9.67773 14.3724 9.67773 14.5991C9.67773 14.8257 9.86142 15.0094 10.0881 15.0094H17.321L14.0954 18.6506C13.945 18.8204 13.9608 19.0797 14.1304 19.2299C14.2087 19.2992 14.3057 19.3332 14.4024 19.3332C14.5156 19.3332 14.6286 19.2865 14.7097 19.195L18.54 14.8712C18.5406 14.8706 18.5409 14.8697 18.5414 14.8691C18.5434 14.8669 18.5447 14.8645 18.5464 14.8622C18.5682 14.8364 18.5853 14.8085 18.5995 14.7793C18.6015 14.7755 18.6046 14.7726 18.6064 14.7686C18.6084 14.7647 18.6084 14.7601 18.61 14.756C18.6233 14.7238 18.6339 14.691 18.6386 14.6572C18.6389 14.6563 18.6393 14.6555 18.6394 14.6545Z" fill="white"/>
</g>
</svg>
