<svg width="25" height="25" viewBox="0 0 25 25" fill="none" xmlns="http://www.w3.org/2000/svg">
<g id="icon-linkedin" clip-path="url(#clip0_63_1595)">
<g id="Group">
<path id="Vector" d="M12.2 0C18.8 0 24.1 5.3 24.4 11.8C24.6 18.6 19.2 24.2 12.6 24.4C6.1 24.6 0.299999 19.5 -1.31084e-06 12.6C-0.200001 5.4 5.7 0 12.2 0ZM13.3 18.4C13.3 18.3 13.3 18.2 13.3 18.2C13.3 16.6 13.3 14.9 13.3 13.3C13.3 12.9 13.4 12.6 13.6 12.3C14 11.8 14.6 11.5 15.2 11.6C15.8 11.7 16.2 12.2 16.3 12.8C16.4 13.1 16.4 13.4 16.4 13.7C16.4 15.2 16.4 16.6 16.4 18.1C16.4 18.2 16.4 18.3 16.4 18.4C17.4 18.4 18.4 18.4 19.3 18.4V18.3C19.3 16.4 19.3 14.5 19.3 12.6C19.3 12 19.1 11.3 18.8 10.8C18.1 9.6 16.9 9.2 15.5 9.3C14.8 9.4 14.1 9.6 13.6 10.2C13.5 10.3 13.4 10.5 13.2 10.7C13.2 10.3 13.2 10 13.2 9.7C13.2 9.5 13.1 9.5 13 9.5C12.2 9.5 11.3 9.5 10.5 9.5C10.4 9.5 10.3 9.5 10.3 9.5C10.3 12.5 10.3 15.4 10.3 18.4C11.3 18.4 12.3 18.4 13.3 18.4ZM8.6 9.5C8.5 9.5 8.5 9.5 8.5 9.5C7.6 9.5 6.7 9.5 5.8 9.5C5.7 9.5 5.6 9.6 5.6 9.7C5.6 12.5 5.6 15.4 5.6 18.2C5.6 18.4 5.7 18.4 5.8 18.4C6.6 18.4 7.5 18.4 8.3 18.4C8.5 18.4 8.6 18.3 8.6 18.1C8.6 15.4 8.6 12.6 8.6 9.9C8.6 9.8 8.6 9.7 8.6 9.5ZM5.5 6.7C5.5 7.6 6.2 8.2 7.2 8.2C8.2 8.2 8.9 7.5 8.9 6.6C8.9 5.7 8.2 5.1 7.2 5.1C6.2 5.2 5.5 5.8 5.5 6.7Z" fill="black"/>
</g>
</g>
<defs>
<clipPath id="clip0_63_1595">
<rect width="24.4" height="24.4" fill="white"/>
</clipPath>
</defs>
</svg>
