<svg width="25" height="25" viewBox="0 0 25 25" fill="none" xmlns="http://www.w3.org/2000/svg">
<g id="icon-facebook" clip-path="url(#clip0_63_1598)">
<g id="Group">
<path id="Vector" d="M12.6 0C18.8 0 24.6 4.9 24.8 11.8C25 18.8 19.5 24.2 13 24.4C6.2 24.6 0.700004 19.1 0.400004 12.6C0.100004 5.6 6 0 12.6 0ZM15.8 5.6C14.9 5.6 14.1 5.6 13.3 5.6C12 5.7 11 6.5 10.8 7.8C10.7 8.5 10.7 9.2 10.7 9.9C10.7 10 10.7 10.1 10.7 10.1C10.3 10.1 9.9 10.1 9.5 10.1C9.3 10.1 9.3 10.1 9.3 10.3C9.3 11 9.3 11.7 9.3 12.3C9.3 12.5 9.4 12.6 9.6 12.6C10 12.6 10.3 12.6 10.7 12.6C10.7 12.7 10.7 12.8 10.7 12.9C10.7 15.1 10.7 17.2 10.7 19.4C10.7 19.5 10.7 19.7 10.9 19.7C11.7 19.7 12.4 19.7 13.2 19.7C13.3 19.7 13.5 19.7 13.7 19.7C13.7 17.3 13.7 15 13.7 12.6C14.4 12.6 15 12.6 15.7 12.6C15.8 11.8 15.9 10.9 16 10.1C15.9 10.1 15.9 10.1 15.8 10.1C15.2 10.1 14.6 10.1 13.9 10.1C13.8 10.1 13.7 10.1 13.7 10C13.7 9.5 13.7 9 13.7 8.5C13.7 8.2 13.9 8.1 14.2 8C14.3 8 14.5 8 14.6 8C15 8 15.4 8 15.8 8C15.8 7.2 15.8 6.3 15.8 5.6Z" fill="black"/>
</g>
</g>
<defs>
<clipPath id="clip0_63_1598">
<rect width="24.4" height="24.4" fill="white" transform="translate(0.400024)"/>
</clipPath>
</defs>
</svg>
