<svg width="19" height="19" viewBox="0 0 19 19" fill="none" xmlns="http://www.w3.org/2000/svg">
<path fill-rule="evenodd" clip-rule="evenodd" d="M1.77471 8.63636H5.22508C5.41871 6.24998 6.21741 3.95927 7.53584 1.97758C4.46397 2.77743 2.13146 5.40916 1.77471 8.63636ZM9.5 2.20296C8.05801 4.06076 7.17577 6.29317 6.95883 8.63636H12.0412C11.8242 6.29317 10.942 4.06076 9.5 2.20296ZM12.0412 10.3636C11.8242 12.7068 10.942 14.9392 9.5 16.797C8.05801 14.9392 7.17577 12.7068 6.95883 10.3636H12.0412ZM5.22508 10.3636H1.77471C2.13146 13.5908 4.46397 16.2226 7.53584 17.0224C6.21741 15.0407 5.41871 12.75 5.22508 10.3636ZM11.4642 17.0224C12.7826 15.0407 13.5813 12.75 13.7749 10.3636H17.2253C16.8685 13.5908 14.536 16.2226 11.4642 17.0224ZM17.2253 8.63636H13.7749C13.5813 6.24998 12.7826 3.95927 11.4642 1.97758C14.536 2.77743 16.8685 5.40916 17.2253 8.63636ZM0 9.5C0 4.25329 4.25329 0 9.5 0C14.7467 0 19 4.25329 19 9.5C19 14.7467 14.7467 19 9.5 19C4.25329 19 0 14.7467 0 9.5Z" fill="black"/>
</svg>
