<svg width="20" height="20" viewBox="0 0 20 20" fill="none" xmlns="http://www.w3.org/2000/svg">
<path fill-rule="evenodd" clip-rule="evenodd" d="M6.79493 1.56641C7.23216 1.56641 7.5866 1.92085 7.5866 2.35807V3.14971H12.3366V2.35807C12.3366 1.92085 12.691 1.56641 13.1282 1.56641C13.5655 1.56641 13.9199 1.92085 13.9199 2.35807V3.14971H15.5033C16.8149 3.14971 17.8783 4.21304 17.8783 5.52471V16.608C17.8783 17.9197 16.8149 18.983 15.5033 18.983H4.41992C3.10825 18.983 2.04492 17.9197 2.04492 16.608V5.52471C2.04492 4.21304 3.10825 3.14971 4.41992 3.14971H6.00327V2.35807C6.00327 1.92085 6.35771 1.56641 6.79493 1.56641ZM6.00327 4.73305H4.41992C3.9827 4.73305 3.62826 5.08749 3.62826 5.52471V7.89971H16.2949V5.52471C16.2949 5.08749 15.9405 4.73305 15.5033 4.73305H13.9199V5.52474C13.9199 5.96197 13.5655 6.31641 13.1282 6.31641C12.691 6.31641 12.3366 5.96197 12.3366 5.52474V4.73305H7.5866V5.52474C7.5866 5.96197 7.23216 6.31641 6.79493 6.31641C6.35771 6.31641 6.00327 5.96197 6.00327 5.52474V4.73305ZM16.2949 9.48305H3.62826V16.608C3.62826 17.0453 3.9827 17.3997 4.41992 17.3997H15.5033C15.9405 17.3997 16.2949 17.0453 16.2949 16.608V9.48305Z" fill="black"/>
</svg>
