<svg width="26" height="25" viewBox="0 0 26 25" fill="none" xmlns="http://www.w3.org/2000/svg">
<g id="icon-youtube" clip-path="url(#clip0_63_1601)">
<g id="Group">
<path id="Vector" d="M13 0C19.5 0 25 5.2 25.2 11.8C25.4 18.6 20 24.2 13.4 24.4C6.89998 24.6 1.09998 19.5 0.799978 12.6C0.499978 5.4 6.49998 0 13 0ZM13 17.5C13.9 17.4 14.7 17.4 15.6 17.4C16.6 17.4 17.6 17.3 18.6 17.2C19.5 17.1 20.1 16.5 20.3 15.6C20.4 15.1 20.5 14.5 20.5 14C20.6 12.3 20.6 10.6 20.4 9C20.3 7.9 19.6 7.3 18.8 7.2C18.5 7.1 18.1 7 17.7 7C16.5 6.9 15.3 6.9 14.1 6.9C11.9 6.9 9.79998 6.9 7.69998 7.1C6.49998 7.1 5.79998 7.7 5.59998 8.9C5.49998 9.4 5.49998 9.9 5.49998 10.4C5.39998 12.1 5.39998 13.7 5.59998 15.4C5.69998 16.5 6.29998 17.1 7.39998 17.3C7.69998 17.4 7.99998 17.4 8.29998 17.4C9.79998 17.4 11.4 17.5 13 17.5Z" fill="black"/>
<path id="Vector_2" d="M11.5001 9.90039C12.8001 10.7004 14.1001 11.4004 15.4001 12.2004C14.1001 13.0004 12.8001 13.7004 11.5001 14.5004C11.5001 12.9004 11.5001 11.4004 11.5001 9.90039Z" fill="black"/>
</g>
</g>
<defs>
<clipPath id="clip0_63_1601">
<rect width="24.4" height="24.4" fill="white" transform="translate(0.799988)"/>
</clipPath>
</defs>
</svg>
