<svg width="25" height="25" viewBox="0 0 25 25" fill="none" xmlns="http://www.w3.org/2000/svg">
<g id="icon-instagram" clip-path="url(#clip0_63_1605)">
<g id="Group">
<path id="Vector" d="M24.6001 12.2004C24.6001 19.0004 19.0001 24.4004 12.3001 24.4004C5.90007 24.3004 7.23749e-05 19.0004 0.200072 11.8004C0.400072 5.10044 6.10007 -0.0995583 12.5001 0.000441739C19.3001 0.100442 24.6001 5.70044 24.6001 12.2004ZM5.30007 12.3004C5.30007 13.3004 5.30007 14.3004 5.40007 15.4004C5.40007 15.7004 5.50007 16.1004 5.50007 16.4004C6.10007 18.0004 7.40007 19.1004 9.20007 19.1004C11.3001 19.1004 13.4001 19.1004 15.6001 19.1004C16.6001 19.1004 17.5001 18.7004 18.3001 18.0004C19.1001 17.2004 19.4001 16.2004 19.4001 15.1004C19.4001 13.1004 19.4001 11.1004 19.4001 9.10044C19.4001 6.90044 17.8001 5.40044 15.7001 5.30044C13.8001 5.20044 11.9001 5.20044 10.0001 5.30044C9.60007 5.30044 9.20007 5.30044 8.70007 5.40044C6.70007 5.70044 5.50007 7.10044 5.40007 9.00044C5.40007 10.1004 5.40007 11.1004 5.30007 12.3004Z" fill="black"/>
<path id="Vector_2" d="M12.5004 6.40039C13.5004 6.40039 14.5004 6.40039 15.5004 6.50039C16.9004 6.60039 17.9004 7.50039 18.0004 9.00039C18.1004 10.3004 18.1004 11.6004 18.1004 12.9004C18.1004 13.7004 18.1004 14.5004 18.0004 15.3004C17.9004 16.7004 16.9004 17.7004 15.5004 17.8004C13.5004 17.9004 11.5004 17.8004 9.6004 17.8004C8.8004 17.8004 8.0004 17.6004 7.4004 17.0004C6.8004 16.4004 6.6004 15.6004 6.6004 14.9004C6.6004 13.1004 6.6004 11.3004 6.6004 9.40039C6.6004 8.50039 6.8004 7.70039 7.5004 7.10039C8.0004 6.70039 8.5004 6.50039 9.1004 6.50039C10.3004 6.50039 11.4004 6.50039 12.5004 6.40039ZM12.4004 15.8004C14.3004 15.8004 16.0004 14.3004 16.0004 12.2004C16.1004 9.90039 14.1004 8.60039 12.5004 8.60039C10.5004 8.60039 8.8004 10.2004 8.8004 12.1004C8.8004 14.0004 10.3004 15.8004 12.4004 15.8004ZM16.1004 7.60039C15.6004 7.60039 15.2004 7.90039 15.2004 8.40039C15.2004 8.90039 15.6004 9.20039 16.0004 9.20039C16.5004 9.20039 16.8004 8.90039 16.8004 8.40039C17.0004 8.00039 16.6004 7.60039 16.1004 7.60039Z" fill="black"/>
<path id="Vector_3" d="M14.7004 12.2004C14.7004 13.5004 13.7004 14.5004 12.4004 14.5004C11.2004 14.5004 10.1004 13.5004 10.1004 12.2004C10.1004 10.9004 11.1004 9.90039 12.4004 9.90039C13.7004 9.90039 14.7004 10.9004 14.7004 12.2004Z" fill="black"/>
</g>
</g>
<defs>
<clipPath id="clip0_63_1605">
<rect width="24.4" height="24.4" fill="white" transform="translate(0.200012)"/>
</clipPath>
</defs>
</svg>
