<svg width="18" height="18" viewBox="0 0 18 18" fill="none" xmlns="http://www.w3.org/2000/svg">
<g clip-path="url(#clip0_548_2358)">
<path fill-rule="evenodd" clip-rule="evenodd" d="M9 2.25C5.27208 2.25 2.25 5.27208 2.25 9C2.25 12.7279 5.27208 15.75 9 15.75C12.7279 15.75 15.75 12.7279 15.75 9C15.75 5.27208 12.7279 2.25 9 2.25ZM0.75 9C0.75 4.44365 4.44365 0.75 9 0.75C13.5563 0.75 17.25 4.44365 17.25 9C17.25 13.5563 13.5563 17.25 9 17.25C4.44365 17.25 0.75 13.5563 0.75 9ZM8.99999 3.74999C9.4142 3.74999 9.74999 4.08577 9.74999 4.49999V8.53646L12.3354 9.82917C12.7059 10.0144 12.8561 10.4649 12.6708 10.8354C12.4856 11.2059 12.0351 11.3561 11.6646 11.1708L8.66458 9.67081C8.41049 9.54376 8.24999 9.28407 8.24999 8.99999V4.49999C8.24999 4.08577 8.58577 3.74999 8.99999 3.74999Z" fill="white"/>
</g>
<defs>
<clipPath id="clip0_548_2358">
<rect width="18" height="18" fill="white"/>
</clipPath>
</defs>
</svg>
