<svg width="64" height="64" viewBox="0 0 64 64" fill="none" xmlns="http://www.w3.org/2000/svg">
<g id="Group 227">
<circle id="Ellipse 48" cx="32.001" cy="32" r="32" fill="black"/>
<path id="Vector" d="M41.1379 32.3412C41.148 32.2651 41.1455 32.1887 41.1368 32.1126C41.1346 32.0941 41.1314 32.076 41.1281 32.0575C41.1158 31.9887 41.097 31.9213 41.0687 31.8565C41.0658 31.8503 41.0644 31.8435 41.0615 31.8377C41.0292 31.7681 40.9857 31.7033 40.935 31.6424C40.9296 31.6362 40.9274 31.6283 40.922 31.6221L32.4689 21.9641C32.14 21.5878 31.5683 21.5494 31.1912 21.879C30.8148 22.2087 30.7764 22.7807 31.1064 23.1571L38.2441 31.3131L22.266 31.3131C21.7657 31.3131 21.3603 31.7185 21.3603 32.2188C21.3603 32.719 21.7657 33.1244 22.266 33.1244L38.2282 33.1244L31.1097 41.1602C30.7779 41.5347 30.8126 42.1071 31.1869 42.4386C31.3597 42.5915 31.5738 42.6665 31.7871 42.6665C32.0371 42.6665 32.2863 42.5636 32.4653 42.3614L40.9184 32.8194C40.9198 32.8179 40.9205 32.8161 40.9216 32.8147C40.926 32.81 40.9289 32.8045 40.9325 32.7995C40.9807 32.7426 41.0183 32.681 41.0499 32.6165C41.0542 32.6082 41.0611 32.6017 41.0651 32.593C41.0694 32.5843 41.0694 32.5741 41.073 32.5651C41.1024 32.4941 41.1256 32.4216 41.1361 32.347C41.1368 32.3452 41.1375 32.3434 41.1379 32.3412Z" fill="white"/>
</g>
</svg>
