<svg width="32" height="33" viewBox="0 0 32 33" fill="none" xmlns="http://www.w3.org/2000/svg">
<g id="Frame 8221">
<g id="Group 220">
<circle id="Ellipse 48" cx="16" cy="16.5" r="16" fill="black"/>
<path id="Vector" d="M20.5685 16.6704C20.5735 16.6323 20.5723 16.5941 20.5679 16.5561C20.5668 16.5468 20.5652 16.5378 20.5636 16.5285C20.5574 16.4941 20.548 16.4604 20.5339 16.428C20.5324 16.4249 20.5317 16.4215 20.5302 16.4186C20.5141 16.3838 20.4924 16.3514 20.467 16.321C20.4643 16.3179 20.4632 16.3139 20.4605 16.3108L16.234 11.4818C16.0695 11.2936 15.7837 11.2744 15.5951 11.4393C15.4069 11.6041 15.3877 11.8901 15.5527 12.0783L19.1216 16.1563L11.1325 16.1563C10.8824 16.1563 10.6797 16.359 10.6797 16.6091C10.6797 16.8593 10.8824 17.062 11.1325 17.062L19.1136 17.062L15.5544 21.0798C15.3884 21.2671 15.4058 21.5533 15.5929 21.719C15.6793 21.7955 15.7864 21.833 15.8931 21.833C16.0181 21.833 16.1427 21.7815 16.2322 21.6805L20.4587 16.9095C20.4594 16.9087 20.4598 16.9078 20.4603 16.9071C20.4625 16.9047 20.4639 16.902 20.4658 16.8995C20.4898 16.8711 20.5087 16.8403 20.5244 16.808C20.5266 16.8039 20.5301 16.8006 20.532 16.7962C20.5342 16.7919 20.5342 16.7868 20.536 16.7823C20.5507 16.7468 20.5623 16.7106 20.5676 16.6733C20.5679 16.6723 20.5683 16.6714 20.5685 16.6704Z" fill="white"/>
</g>
</g>
</svg>
