<svg width="19" height="19" viewBox="0 0 19 19" fill="none" xmlns="http://www.w3.org/2000/svg">
<path fill-rule="evenodd" clip-rule="evenodd" d="M6.334 0.791016C6.77122 0.791016 7.12566 1.14546 7.12566 1.58268V2.37432H11.8756V1.58268C11.8756 1.14546 12.2301 0.791016 12.6673 0.791016C13.1045 0.791016 13.459 1.14546 13.459 1.58268V2.37432H15.0423C16.354 2.37432 17.4173 3.43765 17.4173 4.74932V15.8327C17.4173 17.1443 16.354 18.2077 15.0423 18.2077H3.95898C2.64731 18.2077 1.58398 17.1443 1.58398 15.8327V4.74932C1.58398 3.43765 2.64731 2.37432 3.95898 2.37432H5.54233V1.58268C5.54233 1.14546 5.89677 0.791016 6.334 0.791016ZM5.54233 3.95766H3.95898C3.52176 3.95766 3.16732 4.3121 3.16732 4.74932V7.12432H15.834V4.74932C15.834 4.3121 15.4795 3.95766 15.0423 3.95766H13.459V4.74935C13.459 5.18657 13.1045 5.54102 12.6673 5.54102C12.2301 5.54102 11.8756 5.18657 11.8756 4.74935V3.95766H7.12566V4.74935C7.12566 5.18657 6.77122 5.54102 6.334 5.54102C5.89677 5.54102 5.54233 5.18657 5.54233 4.74935V3.95766ZM15.834 8.70766H3.16732V15.8327C3.16732 16.2699 3.52176 16.6243 3.95898 16.6243H15.0423C15.4795 16.6243 15.834 16.2699 15.834 15.8327V8.70766Z" fill="white"/>
</svg>
