<svg width="122" height="26" viewBox="0 0 122 26" fill="none" xmlns="http://www.w3.org/2000/svg">
<g id="Group 76">
<g id="Group 66">
<g id="Group 146">
<path id="Vector" d="M6.30267 12.734C9.78354 12.734 12.6053 9.88343 12.6053 6.36702C12.6053 2.85061 9.78354 0 6.30267 0C2.8218 0 0 2.85061 0 6.36702C0 9.88343 2.8218 12.734 6.30267 12.734Z" fill="black"/>
<path id="Vector_2" d="M6.30267 12.7422C2.82144 12.7422 0 15.5924 0 19.1092C0 22.626 2.82144 25.4762 6.30267 25.4762C9.78391 25.4762 12.6053 22.626 12.6053 19.1092C12.6053 15.5924 9.78391 12.7422 6.30267 12.7422Z" fill="black"/>
<path id="Vector_3" d="M15.9202 6.36772C17.5718 6.36772 18.9108 5.01514 18.9108 3.34664C18.9108 1.67815 17.5718 0.325562 15.9202 0.325562C14.2686 0.325562 12.9297 1.67815 12.9297 3.34664C12.9297 5.01514 14.2686 6.36772 15.9202 6.36772Z" fill="black"/>
<path id="Vector_4" d="M21.902 12.4146C23.5536 12.4146 24.8925 11.0621 24.8925 9.39352C24.8925 7.72497 23.5536 6.37244 21.902 6.37244C20.2503 6.37244 18.9114 7.72497 18.9114 9.39352C18.9114 11.0621 20.2503 12.4146 21.902 12.4146Z" fill="black"/>
<path id="Vector_5" d="M15.9202 12.4146C17.5719 12.4146 18.9108 11.0621 18.9108 9.39352C18.9108 7.72497 17.5719 6.37244 15.9202 6.37244C14.2685 6.37244 12.9297 7.72497 12.9297 9.39352C12.9297 11.0621 14.2685 12.4146 15.9202 12.4146Z" fill="black"/>
<path id="Vector_6" d="M18.9146 12.7422C15.4343 12.7422 12.6119 15.5924 12.6119 19.1092C12.6119 22.626 15.4334 25.4762 18.9146 25.4762C22.3958 25.4762 25.2173 22.626 25.2173 19.1092C25.2173 15.5924 22.3958 12.7422 18.9146 12.7422Z" fill="black"/>
</g>
<g id="Group 67">
<path id="Vector_7" d="M116.02 11.3433C114.851 11.3433 113.784 11.6389 112.848 12.2205C111.912 12.8021 111.162 13.6093 110.618 14.6184C110.074 15.6275 109.799 16.8004 109.799 18.106C109.799 19.4116 110.083 20.5977 110.642 21.6298C111.201 22.6637 111.976 23.4869 112.944 24.0764C113.911 24.6669 115.01 24.9652 116.21 24.9652C117.088 24.9652 117.903 24.8138 118.632 24.5146C119.359 24.2154 119.996 23.8144 120.524 23.3214C121.053 22.8275 121.452 22.2804 121.71 21.6953L121.745 21.6148L120.07 20.7155L120.025 20.7925C119.637 21.4502 119.127 22.0052 118.508 22.4424C117.894 22.877 117.121 23.0975 116.211 23.0975C115.469 23.0975 114.766 22.916 114.118 22.5575C113.47 22.199 112.934 21.6891 112.525 21.0421C112.131 20.4198 111.91 19.6656 111.867 18.8H121.919C122.384 15.9674 120.833 11.3424 116.02 11.3424L116.02 11.3433ZM111.922 16.9331C112.024 16.1967 112.266 15.5487 112.641 15.0061C113.034 14.4378 113.53 13.9917 114.115 13.6801C114.701 13.3686 115.341 13.211 116.02 13.211C116.698 13.211 117.357 13.3765 117.933 13.7032C118.51 14.0298 118.978 14.4821 119.325 15.0495C119.655 15.5912 119.837 16.225 119.866 16.9331H111.923H111.922Z" fill="black"/>
<path id="Vector_8" d="M104.447 11.3853V11.634H102.388V13.5327H104.447V24.6806H106.414V13.5327H109.218V11.634H106.414V11.0605C106.414 8.07213 109.929 8.98651 109.929 8.98651V7.22945C109.929 7.22945 104.447 5.89727 104.447 11.3853Z" fill="black"/>
<path id="Vector_9" d="M33.594 7.40491H31.5077V24.679H41.6938V22.6918H33.594V7.40491Z" fill="black"/>
<path id="Vector_10" d="M48.517 11.3433C47.349 11.3433 46.2818 11.6389 45.3451 12.2205C44.4093 12.8021 43.6592 13.6093 43.1151 14.6184C42.5719 15.6275 42.2967 16.8004 42.2967 18.106C42.2967 19.4116 42.5806 20.5977 43.1396 21.6298C43.6987 22.6637 44.4733 23.4869 45.4415 24.0764C46.4088 24.6669 47.5076 24.9652 48.7072 24.9652C49.5851 24.9652 50.4 24.8138 51.1291 24.5146C51.8563 24.2154 52.4933 23.8144 53.0217 23.3214C53.5509 22.8275 53.9496 22.2804 54.2072 21.6953L54.2423 21.6148L52.5678 20.7155L52.5222 20.7925C52.135 21.4502 51.6241 22.0052 51.0055 22.4424C50.3913 22.877 49.6184 23.0975 48.708 23.0975C47.9668 23.0975 47.2632 22.916 46.6156 22.5575C45.9672 22.199 45.4318 21.6891 45.0227 21.0421C44.6284 20.4198 44.4075 19.6656 44.3646 18.8H54.4166C54.8819 15.9674 53.3301 11.3424 48.5179 11.3424L48.517 11.3433ZM44.4198 16.9331C44.5215 16.1967 44.7633 15.5487 45.1383 15.0061C45.5317 14.4378 46.0277 13.9917 46.613 13.6801C47.1983 13.3686 47.8388 13.211 48.517 13.211C49.1952 13.211 49.8541 13.3765 50.4307 13.7032C51.0073 14.0298 51.4752 14.4821 51.8221 15.0495C52.1525 15.5912 52.3347 16.225 52.3636 16.9331H44.4207H44.4198Z" fill="black"/>
<path id="Vector_11" d="M67.5264 20.6647V13.532H70.6703V11.6333H67.5264V8.48123H65.5593V10.1453C65.5593 10.9668 64.9004 11.6324 64.0873 11.6324H59.396V8.48035H57.4288V10.1445C57.4288 10.9659 56.7699 11.6315 55.9568 11.6315H55.0779V13.5302H57.4288V20.8346C57.4288 24.763 61.3088 25.2534 63.0936 24.6568V22.7325C63.0936 22.7325 59.396 23.4786 59.396 20.662V13.5293H65.5593V20.8338C65.5593 24.7621 69.4392 25.2525 71.2241 24.6559V22.7316C71.2241 22.7316 67.5264 23.4778 67.5264 20.6612V20.6647Z" fill="black"/>
<path id="Vector_12" d="M100.748 7.40491H98.781V10.0578H100.748V7.40491Z" fill="black"/>
<path id="Vector_13" d="M96.0476 7.40491H94.0805V24.679H96.0476V7.40491Z" fill="black"/>
<path id="Vector_14" d="M100.748 11.634H98.781V24.6805H100.748V11.634Z" fill="black"/>
<path id="Vector_15" d="M89.3106 11.8843C88.8269 12.1189 88.4213 12.4376 88.1023 12.8359V11.6347H86.1352V24.6812H88.1023V16.6704C88.1023 15.6445 88.3731 14.8434 88.9067 14.2893C89.4394 13.7352 90.1606 13.4546 91.0482 13.4546H92.2574V11.4674H91.3566C90.5706 11.4674 89.8819 11.6081 89.3097 11.8843H89.3106Z" fill="black"/>
<path id="Vector_16" d="M78.168 11.3433C77 11.3433 75.9328 11.6389 74.9961 12.2205C74.0603 12.8021 73.3102 13.6093 72.7661 14.6184C72.2228 15.6275 71.9477 16.8004 71.9477 18.106C71.9477 19.4116 72.2316 20.5977 72.7906 21.6298C73.3497 22.6637 74.1242 23.4869 75.0925 24.0764C76.0598 24.6669 77.1586 24.9652 78.3581 24.9652C79.2361 24.9652 80.051 24.8138 80.78 24.5146C81.5073 24.2154 82.1443 23.8144 82.6727 23.3214C83.2019 22.8275 83.6006 22.2804 83.8582 21.6953L83.8932 21.6148L82.2188 20.7155L82.1732 20.7925C81.7859 21.4502 81.2751 22.0052 80.6565 22.4424C80.0422 22.877 79.2694 23.0975 78.359 23.0975C77.6177 23.0975 76.9141 22.916 76.2666 22.5575C75.6182 22.199 75.0828 21.6891 74.6736 21.0421C74.2793 20.4198 74.0585 19.6656 74.0156 18.8H84.0676C84.5329 15.9674 82.9811 11.3424 78.1689 11.3424L78.168 11.3433ZM74.0708 16.9331C74.1724 16.1967 74.4143 15.5487 74.7893 15.0061C75.1827 14.4378 75.6787 13.9917 76.264 13.6801C76.8493 13.3686 77.4898 13.211 78.168 13.211C78.8462 13.211 79.5051 13.3765 80.0817 13.7032C80.6582 14.0298 81.1261 14.4821 81.4731 15.0495C81.8035 15.5912 81.9857 16.225 82.0146 16.9331H74.0717H74.0708Z" fill="black"/>
</g>
</g>
</g>
</svg>
