<svg width="36" height="38" viewBox="0 0 36 38" fill="none" xmlns="http://www.w3.org/2000/svg">
<g id="Group 146">
<path id="Vector" d="M8.9978 18.979C13.9672 18.979 17.9956 14.9094 17.9956 9.88935C17.9956 4.86927 13.9672 0.799683 8.9978 0.799683C4.02845 0.799683 0 4.86927 0 9.88935C0 14.9094 4.02845 18.979 8.9978 18.979Z" fill="black"/>
<path id="Vector_2" d="M8.9978 18.9907C4.02793 18.9907 0 23.0598 0 28.0804C0 33.101 4.02793 37.1701 8.9978 37.1701C13.9677 37.1701 17.9956 33.101 17.9956 28.0804C17.9956 23.0598 13.9677 18.9907 8.9978 18.9907Z" fill="black"/>
<path id="Vector_3" d="M22.731 9.89042C25.0889 9.89042 27.0004 7.95945 27.0004 5.57748C27.0004 3.1955 25.0889 1.26453 22.731 1.26453C20.3731 1.26453 18.4617 3.1955 18.4617 5.57748C18.4617 7.95945 20.3731 9.89042 22.731 9.89042Z" fill="black"/>
<path id="Vector_4" d="M31.2659 18.5231C33.6239 18.5231 35.5353 16.5922 35.5353 14.2102C35.5353 11.8281 33.6239 9.89722 31.2659 9.89722C28.908 9.89722 26.9966 11.8281 26.9966 14.2102C26.9966 16.5922 28.908 18.5231 31.2659 18.5231Z" fill="black"/>
<path id="Vector_5" d="M22.731 18.5231C25.089 18.5231 27.0004 16.5922 27.0004 14.2102C27.0004 11.8281 25.089 9.89722 22.731 9.89722C20.3731 9.89722 18.4617 11.8281 18.4617 14.2102C18.4617 16.5922 20.3731 18.5231 22.731 18.5231Z" fill="black"/>
<path id="Vector_6" d="M27.0023 18.9907C22.0337 18.9907 18.0045 23.0598 18.0045 28.0804C18.0045 33.101 22.0324 37.1701 27.0023 37.1701C31.9722 37.1701 36.0001 33.101 36.0001 28.0804C36.0001 23.0598 31.9722 18.9907 27.0023 18.9907Z" fill="black"/>
</g>
</svg>
