<svg width="25" height="25" viewBox="0 0 25 25" fill="none" xmlns="http://www.w3.org/2000/svg">
<path d="M11.9392 2.9005C12.1488 2.25558 13.0611 2.25558 13.2707 2.9005L15.1074 8.55336C15.2011 8.84178 15.4699 9.03705 15.7732 9.03705H21.7169C22.395 9.03705 22.677 9.90479 22.1284 10.3034L17.3198 13.797C17.0744 13.9753 16.9718 14.2912 17.0655 14.5797L18.9022 20.2325C19.1117 20.8774 18.3736 21.4137 17.825 21.0151L13.0164 17.5215C12.7711 17.3432 12.4388 17.3432 12.1935 17.5215L7.38488 21.0151C6.83628 21.4137 6.09814 20.8774 6.30769 20.2325L8.14442 14.5797C8.23813 14.2912 8.13547 13.9753 7.89013 13.797L3.08151 10.3034C2.53291 9.90479 2.81485 9.03705 3.49296 9.03705H9.43674C9.73999 9.03705 10.0088 8.84178 10.1025 8.55337L11.9392 2.9005Z" fill="black"/>
<mask id="mask0_454_2114" style="mask-type:alpha" maskUnits="userSpaceOnUse" x="2" y="2" width="21" height="20">
<path d="M11.9392 2.9005C12.1488 2.25558 13.0611 2.25558 13.2707 2.9005L15.1074 8.55336C15.2011 8.84178 15.4699 9.03705 15.7732 9.03705H21.7169C22.395 9.03705 22.677 9.90479 22.1284 10.3034L17.3198 13.797C17.0744 13.9753 16.9718 14.2912 17.0655 14.5797L18.9022 20.2325C19.1117 20.8774 18.3736 21.4137 17.825 21.0151L13.0164 17.5215C12.7711 17.3432 12.4388 17.3432 12.1935 17.5215L7.38488 21.0151C6.83628 21.4137 6.09814 20.8774 6.30769 20.2325L8.14442 14.5797C8.23813 14.2912 8.13547 13.9753 7.89013 13.797L3.08151 10.3034C2.53291 9.90479 2.81485 9.03705 3.49296 9.03705H9.43674C9.73999 9.03705 10.0088 8.84178 10.1025 8.55337L11.9392 2.9005Z" fill="#83D875"/>
</mask>
<g mask="url(#mask0_454_2114)">
<rect x="13.4512" y="-10.1484" width="11.8462" height="45.2692" rx="0.7" fill="#D1D1D1"/>
</g>
</svg>
