<svg width="21" height="20" viewBox="0 0 21 20" fill="none" xmlns="http://www.w3.org/2000/svg">
<path d="M9.70873 0.900499C9.91828 0.255582 10.8307 0.255581 11.0402 0.900499L12.8769 6.55336C12.9707 6.84178 13.2394 7.03705 13.5427 7.03705H19.4865C20.1646 7.03705 20.4465 7.90479 19.8979 8.30337L15.0893 11.797C14.844 11.9753 14.7413 12.2912 14.835 12.5797L16.6717 18.2325C16.8813 18.8774 16.1431 19.4137 15.5945 19.0151L10.7859 15.5215C10.5406 15.3432 10.2084 15.3432 9.96303 15.5215L5.15441 19.0151C4.60581 19.4137 3.86767 18.8774 4.07722 18.2325L5.91395 12.5797C6.00766 12.2912 5.905 11.9753 5.65966 11.797L0.851042 8.30337C0.302443 7.90479 0.584385 7.03705 1.26249 7.03705H7.20627C7.50953 7.03705 7.7783 6.84178 7.87201 6.55337L9.70873 0.900499Z" fill="black"/>
</svg>
